<svg width="426" height="378" viewBox="0 0 426 378" xmlns="http://www.w3.org/2000/svg"><path d="M167.925 33.32c18.817-32.423 49.333-32.423 68.15 0l157.831 271.905c18.817 32.423 3.718 58.705-33.728 58.705H43.812c-37.436 0-52.535-26.282-33.718-58.705L167.924 33.32"/><path d="M189.624 40.108c6.836-11.878 17.916-11.878 24.752 0l160.957 279.69c6.836 11.869 1.287 21.493-12.385 21.493H41.052c-13.672 0-19.221-9.624-12.385-21.493l160.957-279.69" fill="#DD2E44"/><path d="M207.972 252.352c1.305-12.103 2.61-22.422 3.915-30.91a813.257 813.257 0 0 1 3.672-22c1.126-6.188 2.187-11.531 3.173-15.991.958-4.451 1.803-8.667 2.507-12.658.714-3.962 1.24-8.028 1.625-12.131.394-4.103.6-8.883.6-14.254 0-4.948-.666-9.37-1.971-13.333-1.343-3.925-3.042-7.249-5.127-9.934-2.112-2.695-4.516-4.78-7.23-6.263-2.723-1.455-5.474-2.197-8.263-2.197-2.826 0-5.577.742-8.3 2.197-2.723 1.484-5.118 3.568-7.202 6.263-2.122 2.685-3.812 6.01-5.117 9.934-1.343 3.963-1.982 8.385-1.982 13.333 0 5.371.179 10.15.564 14.254.394 4.103.957 8.169 1.662 12.131a251.444 251.444 0 0 0 2.572 12.658c.996 4.46 2.085 9.803 3.221 15.99 1.127 6.188 2.329 13.54 3.671 22.066 1.306 8.563 2.61 18.817 3.953 30.845h14.057M179.4 288.099c0-11.869 9.614-21.503 21.473-21.503 11.85 0 21.465 9.634 21.465 21.503 0 11.878-9.615 21.511-21.465 21.511-11.859 0-21.474-9.633-21.474-21.511"/></svg>